name analog
datacolumns 19
datarows 23
range 0.0 0.011
endheader
time	ground_force_vx	ground_force_vy	ground_force_vz	ground_force_px	ground_force_py	ground_force_pz	l_ground_force_vx	l_ground_force_vy	l_ground_force_vz	l_ground_force_px	l_ground_force_py	l_ground_force_pz	ground_torque_x	ground_torque_y	ground_torque_z	l_ground_torque_x	l_ground_torque_y	l_ground_torque_z
0.0	-0.0	-0.0	-0.0	-7.155954837799072	35.37681198120117	-457.1220397949219	7.456138610839844	-36.746238708496094	-533.503662109375	-0.0	-0.0	-0.0	-0.0	-0.0	-0.0	153791.984375	-23728.439453125	1960.225341796875
0.0005	-0.0	-0.0	-0.0	-7.091010093688965	35.38477325439453	-457.72119140625	7.241613864898682	-36.625606536865234	-533.9630737304688	-0.0	-0.0	-0.0	-0.0	-0.0	-0.0	153695.46875	-23743.185546875	2031.7415771484373
0.001	-0.0	-0.0	-0.0	-7.234393119812012	35.21484375	-456.4151916503906	7.064088821411133	-36.87627029418945	-534.11083984375	-0.0	-0.0	-0.0	-0.0	-0.0	-0.0	153647.015625	-23520.341796875	2003.459716796875
0.0015	-0.0	-0.0	-0.0	-7.485122203826904	35.11737823486328	-458.6017761230469	6.88652229309082	-36.48185729980469	-533.3038330078125	-0.0	-0.0	-0.0	-0.0	-0.0	-0.0	153398.578125	-23646.8046875	1973.793701171875
0.002	-0.0	-0.0	-0.0	-7.681427478790283	35.26010513305664	-457.72119140625	6.7420196533203125	-36.71929931640625	-533.852783203125	-0.0	-0.0	-0.0	-0.0	-0.0	-0.0	153387.453125	-23534.978515625	1951.5528564453125
0.0025	-0.0	-0.0	-0.0	-7.24391508102417	35.18865966796875	-457.8271789550781	7.135375022888184	-36.60352325439453	-532.4140014648438	-0.0	-0.0	-0.0	-0.0	-0.0	-0.0	153289.21875	-23538.814453125	2090.840087890625
0.003	-0.0	-0.0	-0.0	-7.502806186676025	35.31386947631836	-457.8991394042969	6.913858890533447	-36.53759002685547	-532.30322265625	-0.0	-0.0	-0.0	-0.0	-0.0	-0.0	153404.953125	-23529.447265625	1999.7919921875
0.0035	-0.0	-0.0	-0.0	-7.4218363761901855	35.33153533935547	-456.83587646484375	7.213231086730957	-36.41607284545898	-533.8980102539062	-0.0	-0.0	-0.0	-0.0	-0.0	-0.0	153304.296875	-23494.421875	1924.04296875
0.004	-0.0	-0.0	-0.0	-7.778428077697754	35.23307037353516	-456.5261840820313	7.069267272949219	-36.47686004638672	-532.2156372070312	-0.0	-0.0	-0.0	-0.0	-0.0	-0.0	153083.328125	-23415.0078125	2094.66259765625
0.0045000000000000005	-0.0	-0.0	-0.0	-8.012124061584473	35.02825164794922	-457.5112915039063	6.940822601318359	-36.096168518066406	-532.5403442382812	-0.0	-0.0	-0.0	-0.0	-0.0	-0.0	153360.5	-23367.64453125	1942.3372802734373
0.005	-0.0	-0.0	-0.0	-7.814225673675537	35.0712776184082	-458.3228149414063	7.094584465026856	-36.619876861572266	-533.4202880859375	-0.0	-0.0	-0.0	-0.0	-0.0	-0.0	153167.015625	-23326.953125	1990.3148193359373
0.0055	-0.0	-0.0	-0.0	-7.840463161468506	35.2165641784668	-458.0744018554688	7.137292385101318	-36.32749557495117	-532.4561767578125	-0.0	-0.0	-0.0	-0.0	-0.0	-0.0	153343.421875	-23316.435546875	1753.0101318359375
0.006	-0.0	-0.0	-0.0	-8.03919506072998	34.955177307128906	-458.6359558105469	6.9875168800354	-36.38853454589844	-532.805419921875	-0.0	-0.0	-0.0	-0.0	-0.0	-0.0	153219.90625	-23565.984375	1946.6531982421875
0.006500000000000001	-0.0	-0.0	-0.0	-7.714235782623291	35.08074188232422	-458.0744018554688	6.919441223144531	-36.245887756347656	-533.4232177734375	-0.0	-0.0	-0.0	-0.0	-0.0	-0.0	153268.3125	-23645.755859375	1955.833984375
0.007	-0.0	-0.0	-0.0	-7.929111957550049	35.50007247924805	-459.9440002441406	6.72188138961792	-36.1094856262207	-532.1070556640625	-0.0	-0.0	-0.0	-0.0	-0.0	-0.0	153275.359375	-23477.95703125	1909.94091796875
0.0075	-0.0	-0.0	-0.0	-7.69824743270874	35.55226135253906	-459.2555541992188	6.69317102432251	-35.946929931640625	-532.3493041992188	-0.0	-0.0	-0.0	-0.0	-0.0	-0.0	153321.953125	-23408.205078125	1894.128173828125
0.008	-0.0	-0.0	-0.0	-7.5787458419799805	34.90210723876953	-458.1776428222656	7.008152008056641	-36.211891174316406	-531.9712524414062	-0.0	-0.0	-0.0	-0.0	-0.0	-0.0	153519.65625	-23583.29296875	1956.0927734375
0.0085	-0.0	-0.0	-0.0	-7.779774665832519	35.23249816894531	-458.927978515625	6.7420196533203125	-36.05456161499024	-533.0181274414062	-0.0	-0.0	-0.0	-0.0	-0.0	-0.0	153308.078125	-23418.31640625	1802.591064453125
0.009000000000000001	-0.0	-0.0	-0.0	-8.028945922851562	35.40743637084961	-460.3989868164063	6.935017108917236	-36.000640869140625	-531.9088745117188	-0.0	-0.0	-0.0	-0.0	-0.0	-0.0	153476.4375	-23552.140625	1896.8907470703125
0.0095	-0.0	-0.0	-0.0	-7.758551120758057	35.44804000854492	-460.6948852539063	6.537696361541748	-36.09678649902344	-532.31884765625	-0.0	-0.0	-0.0	-0.0	-0.0	-0.0	153441.84375	-23371.5390625	1884.98388671875
0.01	-0.0	-0.0	-0.0	-7.6721038818359375	35.42462921142578	-461.6526794433594	6.7420196533203125	-36.211891174316406	-533.4302368164062	-0.0	-0.0	-0.0	-0.0	-0.0	-0.0	153296.953125	-23388.259765625	2024.4658203125
0.0105	-0.0	-0.0	-0.0	-7.913966655731201	35.56499099731445	-460.2955017089844	6.777154445648193	-36.05361175537109	-532.9108276367188	-0.0	-0.0	-0.0	-0.0	-0.0	-0.0	153327.703125	-23405.298828125	1912.076171875
0.011	-0.0	-0.0	-0.0	-7.888343334197998	35.816864013671875	-460.1454772949219	7.070147514343262	-36.0267219543457	-534.1305541992188	-0.0	-0.0	-0.0	-0.0	-0.0	-0.0	153517.90625	-23393.400390625	1938.7012939453125
